# xmcd CD database file
#
# Track frame offsets:
#	150
#	16505
#	33935
#	52176
#	62810
#	84755
#	100931
#	112452
#	129250
#	144978
#	158521
#	178438
#
# Disc length: 2565 seconds
#
# Revision: 0
# Processed by: cddbd v1.5.2PL0 Copyright (c) Steve Scherf et al.
# Submitted via: CDex 1.79
#
DISCID=990a030c
DTITLE=Mike Cowan - Easy Chair
DYEAR=2008
DGENRE=Country
TTITLE0=April`s Fool
TTITLE1=Easy Chair
TTITLE2=I Don`t Live Here Anymore
TTITLE3=Single Standard Time
TTITLE4=A Vegas Story
TTITLE5=Misery
TTITLE6=Head Over Heels
TTITLE7=Motel With No Phone
TTITLE8=Too Much Time In The Honky-Tonks
TTITLE9=Talkin` To Her Memory Again
TTITLE10=For Pete`s Sake
TTITLE11=Last Thin Dime
EXTD=YEAR: 2008
EXTT0=
EXTT1=
EXTT2=
EXTT3=
EXTT4=
EXTT5=
EXTT6=
EXTT7=
EXTT8=
EXTT9=
EXTT10=
EXTT11=
PLAYORDER=
